<svg viewBox="0 0 379 61" fill="none" xmlns="http://www.w3.org/2000/svg">
    <path d="M2.34375 49V12.6364H27.9119V20.5909H12.2159V26.8409H26.3494V34.7955H12.2159V49H2.34375ZM48.9151 12.6364V49H39.043V12.6364H48.9151ZM95.0426 26.2727H85.0284C84.9574 25.4441 84.768 24.6925 84.4602 24.0178C84.1643 23.343 83.75 22.763 83.2173 22.2777C82.6965 21.7805 82.0632 21.4018 81.3175 21.1413C80.5717 20.8691 79.7254 20.733 78.7784 20.733C77.1212 20.733 75.7185 21.1354 74.5703 21.9403C73.4339 22.7453 72.5698 23.8994 71.978 25.4027C71.398 26.906 71.108 28.7112 71.108 30.8182C71.108 33.0436 71.4039 34.9079 71.9957 36.4112C72.5994 37.9027 73.4695 39.0272 74.6058 39.7848C75.7422 40.5305 77.1094 40.9034 78.7074 40.9034C79.6188 40.9034 80.4356 40.791 81.1577 40.5661C81.8797 40.3293 82.5071 39.992 83.0398 39.554C83.5724 39.116 84.0045 38.5893 84.3359 37.9737C84.6792 37.3464 84.91 36.642 85.0284 35.8608L95.0426 35.9318C94.9242 37.4706 94.4922 39.0391 93.7464 40.6371C93.0007 42.2232 91.9413 43.6911 90.5682 45.0405C89.2069 46.3781 87.5201 47.4553 85.5078 48.272C83.4955 49.0888 81.1577 49.4972 78.4943 49.4972C75.1562 49.4972 72.1615 48.781 69.5099 47.3487C66.8703 45.9164 64.781 43.8094 63.2422 41.0277C61.7152 38.246 60.9517 34.8428 60.9517 30.8182C60.9517 26.7699 61.733 23.3608 63.2955 20.5909C64.858 17.8092 66.965 15.7081 69.6165 14.2876C72.268 12.8553 75.2273 12.1392 78.4943 12.1392C80.7907 12.1392 82.9036 12.4529 84.8331 13.0803C86.7625 13.7076 88.4553 14.625 89.9112 15.8324C91.3672 17.0279 92.5391 18.5017 93.4268 20.2536C94.3146 22.0054 94.8532 24.0118 95.0426 26.2727Z" fill="white"/>
    <path d="M129.291 27V13.9091H137.678V15.897H131.663V19.451H137.102V21.4389H131.663V27H129.291ZM139.884 27H137.353L141.962 13.9091H144.889L149.504 27H146.973L143.477 16.5938H143.374L139.884 27ZM139.968 21.8672H146.871V23.772H139.968V21.8672ZM161.819 18.326H159.428C159.36 17.9339 159.234 17.5866 159.051 17.2841C158.868 16.9773 158.64 16.7173 158.367 16.5043C158.094 16.2912 157.783 16.1314 157.434 16.0249C157.089 15.9141 156.716 15.8587 156.315 15.8587C155.604 15.8587 154.973 16.0376 154.423 16.3956C153.873 16.7493 153.443 17.2692 153.132 17.9553C152.821 18.6371 152.665 19.4702 152.665 20.4545C152.665 21.456 152.821 22.2997 153.132 22.9858C153.447 23.6676 153.878 24.1832 154.423 24.5327C154.973 24.8778 155.601 25.0504 156.309 25.0504C156.701 25.0504 157.067 24.9993 157.408 24.897C157.753 24.7905 158.062 24.6349 158.335 24.4304C158.612 24.2259 158.844 23.9744 159.032 23.6761C159.224 23.3778 159.356 23.0369 159.428 22.6534L161.819 22.6662C161.729 23.2884 161.535 23.8722 161.237 24.4176C160.943 24.9631 160.557 25.4446 160.08 25.8622C159.603 26.2756 159.045 26.5994 158.405 26.8338C157.766 27.0639 157.057 27.179 156.277 27.179C155.126 27.179 154.099 26.9126 153.196 26.38C152.292 25.8473 151.581 25.0781 151.061 24.0724C150.541 23.0668 150.281 21.8608 150.281 20.4545C150.281 19.044 150.543 17.8381 151.067 16.8366C151.591 15.831 152.305 15.0618 153.209 14.5291C154.112 13.9964 155.135 13.7301 156.277 13.7301C157.006 13.7301 157.683 13.8324 158.309 14.0369C158.936 14.2415 159.494 14.5419 159.984 14.9382C160.474 15.3303 160.877 15.8118 161.192 16.3828C161.512 16.9496 161.721 17.5973 161.819 18.326ZM172.243 13.9091H174.614V22.4616C174.614 23.3991 174.392 24.2237 173.949 24.9354C173.51 25.647 172.892 26.2031 172.096 26.6037C171.299 27 170.368 27.1982 169.302 27.1982C168.233 27.1982 167.299 27 166.502 26.6037C165.706 26.2031 165.088 25.647 164.649 24.9354C164.21 24.2237 163.99 23.3991 163.99 22.4616V13.9091H166.362V22.2635C166.362 22.8089 166.481 23.2947 166.72 23.7209C166.963 24.147 167.304 24.4815 167.743 24.7244C168.181 24.9631 168.701 25.0824 169.302 25.0824C169.903 25.0824 170.423 24.9631 170.862 24.7244C171.305 24.4815 171.646 24.147 171.885 23.7209C172.123 23.2947 172.243 22.8089 172.243 22.2635V13.9091ZM177.192 27V13.9091H179.563V25.0121H185.329V27H177.192ZM185.142 15.897V13.9091H195.586V15.897H191.54V27H189.188V15.897H185.142ZM197.699 27H195.168L199.776 13.9091H202.704L207.319 27H204.788L201.291 16.5938H201.189L197.699 27ZM197.782 21.8672H204.685V23.772H197.782V21.8672ZM213.479 27H209.043V13.9091H213.569C214.868 13.9091 215.985 14.1712 216.918 14.6953C217.856 15.2152 218.576 15.9631 219.079 16.9389C219.581 17.9148 219.833 19.0824 219.833 20.4418C219.833 21.8054 219.579 22.9773 219.072 23.9574C218.569 24.9375 217.843 25.6896 216.893 26.2138C215.947 26.7379 214.809 27 213.479 27ZM211.415 24.9482H213.364C214.276 24.9482 215.037 24.782 215.646 24.4496C216.256 24.1129 216.714 23.6122 217.02 22.9474C217.327 22.2784 217.481 21.4432 217.481 20.4418C217.481 19.4403 217.327 18.6094 217.02 17.9489C216.714 17.2841 216.26 16.7876 215.659 16.4595C215.062 16.1271 214.321 15.9609 213.434 15.9609H211.415V24.9482ZM230.987 27H226.551V13.9091H231.077C232.376 13.9091 233.493 14.1712 234.426 14.6953C235.363 15.2152 236.084 15.9631 236.586 16.9389C237.089 17.9148 237.341 19.0824 237.341 20.4418C237.341 21.8054 237.087 22.9773 236.58 23.9574C236.077 24.9375 235.351 25.6896 234.4 26.2138C233.454 26.7379 232.317 27 230.987 27ZM228.922 24.9482H230.872C231.784 24.9482 232.545 24.782 233.154 24.4496C233.763 24.1129 234.221 23.6122 234.528 22.9474C234.835 22.2784 234.988 21.4432 234.988 20.4418C234.988 19.4403 234.835 18.6094 234.528 17.9489C234.221 17.2841 233.768 16.7876 233.167 16.4595C232.57 16.1271 231.829 15.9609 230.942 15.9609H228.922V24.9482ZM239.594 27V13.9091H248.108V15.897H241.965V19.451H247.667V21.4389H241.965V25.0121H248.159V27H239.594ZM257.364 13.9091V27H254.992V13.9091H257.364ZM270.69 13.9091V27H268.58L262.412 18.0831H262.303V27H259.932V13.9091H262.054L268.216 22.8324H268.331V13.9091H270.69ZM273.274 27V13.9091H281.66V15.897H275.645V19.451H281.085V21.4389H275.645V27H273.274ZM295.518 20.4545C295.518 21.8651 295.254 23.0732 294.725 24.0788C294.201 25.0803 293.485 25.8473 292.578 26.38C291.674 26.9126 290.649 27.179 289.503 27.179C288.357 27.179 287.33 26.9126 286.422 26.38C285.519 25.843 284.803 25.0739 284.274 24.0724C283.75 23.0668 283.488 21.8608 283.488 20.4545C283.488 19.044 283.75 17.8381 284.274 16.8366C284.803 15.831 285.519 15.0618 286.422 14.5291C287.33 13.9964 288.357 13.7301 289.503 13.7301C290.649 13.7301 291.674 13.9964 292.578 14.5291C293.485 15.0618 294.201 15.831 294.725 16.8366C295.254 17.8381 295.518 19.044 295.518 20.4545ZM293.134 20.4545C293.134 19.4616 292.978 18.6243 292.667 17.9425C292.36 17.2564 291.934 16.7386 291.389 16.3892C290.843 16.0355 290.215 15.8587 289.503 15.8587C288.791 15.8587 288.163 16.0355 287.617 16.3892C287.072 16.7386 286.644 17.2564 286.333 17.9425C286.026 18.6243 285.872 19.4616 285.872 20.4545C285.872 21.4474 286.026 22.2869 286.333 22.973C286.644 23.6548 287.072 24.1726 287.617 24.5263C288.163 24.8757 288.791 25.0504 289.503 25.0504C290.215 25.0504 290.843 24.8757 291.389 24.5263C291.934 24.1726 292.36 23.6548 292.667 22.973C292.978 22.2869 293.134 21.4474 293.134 20.4545ZM297.76 27V13.9091H302.669C303.675 13.9091 304.518 14.0838 305.2 14.4332C305.886 14.7827 306.404 15.2727 306.754 15.9034C307.107 16.5298 307.284 17.2607 307.284 18.0959C307.284 18.9354 307.105 19.6641 306.747 20.282C306.393 20.8956 305.871 21.3707 305.181 21.7074C304.491 22.0398 303.643 22.206 302.637 22.206H299.141V20.2372H302.317C302.906 20.2372 303.387 20.1562 303.762 19.9943C304.137 19.8281 304.414 19.5874 304.593 19.272C304.776 18.9524 304.868 18.5604 304.868 18.0959C304.868 17.6314 304.776 17.2351 304.593 16.907C304.41 16.5746 304.131 16.3232 303.756 16.1527C303.381 15.978 302.897 15.8906 302.305 15.8906H300.131V27H297.76ZM304.523 21.0682L307.763 27H305.117L301.934 21.0682H304.523ZM309.467 13.9091H312.369L316.255 23.3949H316.409L320.295 13.9091H323.197V27H320.922V18.0064H320.8L317.182 26.9616H315.482L311.864 17.9872H311.743V27H309.467V13.9091ZM327.461 27H324.929L329.538 13.9091H332.466L337.081 27H334.549L331.053 16.5938H330.951L327.461 27ZM327.544 21.8672H334.447V23.772H327.544V21.8672ZM330.113 12.6179L331.545 9.69673H333.808L331.846 12.6179H330.113ZM336.648 15.897V13.9091H347.092V15.897H343.046V27H340.694V15.897H336.648ZM351.477 13.9091V27H349.106V13.9091H351.477ZM365.25 18.326H362.86C362.792 17.9339 362.666 17.5866 362.483 17.2841C362.299 16.9773 362.071 16.7173 361.799 16.5043C361.526 16.2912 361.215 16.1314 360.865 16.0249C360.52 15.9141 360.147 15.8587 359.747 15.8587C359.035 15.8587 358.404 16.0376 357.855 16.3956C357.305 16.7493 356.875 17.2692 356.564 17.9553C356.252 18.6371 356.097 19.4702 356.097 20.4545C356.097 21.456 356.252 22.2997 356.564 22.9858C356.879 23.6676 357.309 24.1832 357.855 24.5327C358.404 24.8778 359.033 25.0504 359.74 25.0504C360.132 25.0504 360.499 24.9993 360.84 24.897C361.185 24.7905 361.494 24.6349 361.767 24.4304C362.044 24.2259 362.276 23.9744 362.463 23.6761C362.655 23.3778 362.787 23.0369 362.86 22.6534L365.25 22.6662C365.161 23.2884 364.967 23.8722 364.669 24.4176C364.375 24.9631 363.989 25.4446 363.512 25.8622C363.034 26.2756 362.476 26.5994 361.837 26.8338C361.198 27.0639 360.488 27.179 359.708 27.179C358.558 27.179 357.531 26.9126 356.627 26.38C355.724 25.8473 355.012 25.0781 354.493 24.0724C353.973 23.0668 353.713 21.8608 353.713 20.4545C353.713 19.044 353.975 17.8381 354.499 16.8366C355.023 15.831 355.737 15.0618 356.64 14.5291C357.544 13.9964 358.566 13.7301 359.708 13.7301C360.437 13.7301 361.115 13.8324 361.741 14.0369C362.368 14.2415 362.926 14.5419 363.416 14.9382C363.906 15.3303 364.309 15.8118 364.624 16.3828C364.944 16.9496 365.152 17.5973 365.25 18.326ZM368.945 27H366.414L371.022 13.9091H373.95L378.565 27H376.034L372.537 16.5938H372.435L368.945 27ZM369.028 21.8672H375.931V23.772H369.028V21.8672Z" fill="#001737"/>
    <path d="M140.688 40.4922H137.888C137.837 40.13 137.733 39.8082 137.575 39.527C137.418 39.2415 137.215 38.9986 136.968 38.7983C136.721 38.598 136.435 38.4446 136.112 38.3381C135.792 38.2315 135.445 38.1783 135.07 38.1783C134.392 38.1783 133.802 38.3466 133.299 38.6832C132.796 39.0156 132.406 39.5014 132.129 40.1406C131.852 40.7756 131.714 41.5469 131.714 42.4545C131.714 43.3878 131.852 44.1719 132.129 44.8068C132.411 45.4418 132.803 45.9212 133.305 46.245C133.808 46.5689 134.39 46.7308 135.05 46.7308C135.421 46.7308 135.764 46.6818 136.08 46.5838C136.399 46.4858 136.683 46.343 136.93 46.1555C137.177 45.9638 137.381 45.7315 137.543 45.4588C137.71 45.1861 137.825 44.875 137.888 44.5256L140.688 44.5384C140.616 45.1392 140.435 45.7188 140.145 46.277C139.859 46.831 139.474 47.3274 138.988 47.7663C138.506 48.201 137.931 48.5462 137.262 48.8018C136.597 49.0533 135.845 49.179 135.006 49.179C133.838 49.179 132.794 48.9148 131.874 48.3864C130.957 47.858 130.233 47.093 129.7 46.0916C129.172 45.0902 128.908 43.8778 128.908 42.4545C128.908 41.027 129.176 39.8125 129.713 38.8111C130.25 37.8097 130.979 37.0469 131.899 36.5227C132.82 35.9943 133.855 35.7301 135.006 35.7301C135.764 35.7301 136.467 35.8366 137.115 36.0497C137.767 36.2628 138.344 36.5739 138.847 36.983C139.35 37.3878 139.759 37.8842 140.075 38.4723C140.394 39.0604 140.599 39.7337 140.688 40.4922ZM172.359 35.9091H175.127V44.4105C175.127 45.3651 174.899 46.2003 174.443 46.9162C173.991 47.6321 173.358 48.1903 172.544 48.5909C171.73 48.9872 170.782 49.1854 169.7 49.1854C168.613 49.1854 167.663 48.9872 166.849 48.5909C166.035 48.1903 165.402 47.6321 164.95 46.9162C164.499 46.2003 164.273 45.3651 164.273 44.4105V35.9091H167.041V44.174C167.041 44.6726 167.149 45.1158 167.367 45.5036C167.588 45.8913 167.899 46.196 168.3 46.4176C168.7 46.6392 169.167 46.75 169.7 46.75C170.237 46.75 170.703 46.6392 171.1 46.4176C171.5 46.196 171.809 45.8913 172.026 45.5036C172.248 45.1158 172.359 44.6726 172.359 44.174V35.9091ZM199.004 49V35.9091H201.772V46.718H207.384V49H199.004ZM233.584 35.9091V49H230.817V35.9091H233.584ZM259.718 49H256.752L261.271 35.9091H264.838L269.351 49H266.385L263.106 38.9006H263.004L259.718 49ZM259.533 43.8544H266.538V46.0149H259.533V43.8544ZM303.462 40.4922H300.662C300.611 40.13 300.506 39.8082 300.349 39.527C300.191 39.2415 299.989 38.9986 299.741 38.7983C299.494 38.598 299.209 38.4446 298.885 38.3381C298.565 38.2315 298.218 38.1783 297.843 38.1783C297.165 38.1783 296.575 38.3466 296.072 38.6832C295.57 39.0156 295.18 39.5014 294.903 40.1406C294.626 40.7756 294.487 41.5469 294.487 42.4545C294.487 43.3878 294.626 44.1719 294.903 44.8068C295.184 45.4418 295.576 45.9212 296.079 46.245C296.582 46.5689 297.163 46.7308 297.824 46.7308C298.195 46.7308 298.538 46.6818 298.853 46.5838C299.173 46.4858 299.456 46.343 299.703 46.1555C299.95 45.9638 300.155 45.7315 300.317 45.4588C300.483 45.1861 300.598 44.875 300.662 44.5256L303.462 44.5384C303.389 45.1392 303.208 45.7188 302.918 46.277C302.633 46.831 302.247 47.3274 301.761 47.7663C301.28 48.201 300.705 48.5462 300.036 48.8018C299.371 49.0533 298.619 49.179 297.779 49.179C296.612 49.179 295.567 48.9148 294.647 48.3864C293.731 47.858 293.006 47.093 292.474 46.0916C291.945 45.0902 291.681 43.8778 291.681 42.4545C291.681 41.027 291.95 39.8125 292.487 38.8111C293.023 37.8097 293.752 37.0469 294.673 36.5227C295.593 35.9943 296.629 35.7301 297.779 35.7301C298.538 35.7301 299.241 35.8366 299.888 36.0497C300.54 36.2628 301.118 36.5739 301.621 36.983C302.124 37.3878 302.533 37.8842 302.848 38.4723C303.168 39.0604 303.372 39.7337 303.462 40.4922ZM329.057 49H326.091L330.61 35.9091H334.177L338.689 49H335.724L332.444 38.9006H332.342L329.057 49ZM328.871 43.8544H335.877V46.0149H328.871V43.8544ZM331.415 34.6435L332.77 31.7351H335.289L333.339 34.6435H331.415ZM372.815 35.9091V49H370.424L364.729 40.7607H364.633V49H361.865V35.9091H364.294L369.945 44.142H370.06V35.9091H372.815Z" fill="white"/>
</svg>